<?xml version="1.0" encoding="UTF-8"?>
<svg width="46px" height="28px" viewBox="0 0 46 28" version="1.1" xmlns="http://www.w3.org/2000/svg" xmlns:xlink="http://www.w3.org/1999/xlink">
    <defs>
        <linearGradient x1="87.6774212%" y1="100%" x2="34.1150068%" y2="0%" id="linearGradient-1">
            <stop stop-color="#02DDD8" offset="0%"></stop>
            <stop stop-color="#00B2D6" offset="100%"></stop>
        </linearGradient>
    </defs>
    <g id="Page-1" stroke="none" stroke-width="1" fill="none" fill-rule="evenodd">
        <g id="Tablet_Portrait-Copy-22" transform="translate(-27.000000, -741.000000)" fill="url(#linearGradient-1)">
            <g id="nav---primary-signed-in-tablet" transform="translate(0.000000, -1.000000)">
                <path d="M51.6297054,754.935104 L51.6297054,754.935104 C55.7841136,750.739487 61.2434778,748.678399 66.7052255,748.678399 L66.7636208,748.678399 C67.2379336,749.862933 67.5358688,751.047466 67.5942641,752.231999 L66.7052255,752.231999 C61.9561388,752.231999 57.5788751,754.031306 54.2551102,757.340892 C50.9313454,760.651663 49.1651856,765.05102 49.1651856,769.779677 L49.1651856,770 L45.3385062,770 C45.3385062,764.077333 47.4145185,759.07268 51.6297054,754.935104 L51.6297054,754.935104 Z M73,761.682207 L73,761.682207 L73,760.854218 C73,759.436331 72.8498407,758.135714 72.2563538,756.953549 C70.4747014,756.126745 68.5905593,755.771385 66.6313376,755.771385 C63.0108293,755.771385 59.427265,757.211778 56.696987,759.930282 C53.966709,762.708013 52.5795228,766.4464 52.6391098,770 L56.3180134,770 C56.2584264,767.630933 57.2678308,764.49192 59.3450348,762.482951 C61.3030648,760.472798 63.9153605,759.3392 66.5264644,759.3392 L66.7052255,759.3392 L66.8827949,759.3392 C69.1375683,759.3392 71.8082593,760.203909 73,761.682207 L73,761.682207 Z M71.690277,764.888738 L71.690277,764.888738 C70.3829374,763.528894 68.6036685,762.8928 66.8827949,762.8928 L66.7052255,762.8928 L66.5264644,762.8928 C64.7460038,762.8928 63.0251302,763.609442 61.7189824,764.969287 C60.2948522,766.329131 59.6417783,767.630933 59.6417783,770 L63.2026996,770 C63.439856,768.815467 63.6186171,768.146205 64.2704992,767.43667 C64.9831602,766.786361 65.8138035,766.451138 66.7052255,766.451138 C67.5942641,766.451138 68.4249074,766.72595 69.1375683,767.376259 C69.3163294,767.613165 69.4938988,767.898638 69.6714682,768.13436 C70.6808726,767.426009 71.5115158,766.452323 72.1645898,765.329385 C71.9870204,765.151705 71.8678463,765.066418 71.690277,764.888738 L71.690277,764.888738 Z M42.0147413,769.779677 L42.0147413,769.779677 C42.0147413,756.894323 51.8668618,746.315255 64.5684344,745.191133 C62.5508174,743.18098 59.7895541,742 56.7625327,742 C51.2435814,742 46.5993679,746.137575 46.005881,751.516541 C45.0560636,750.925459 43.9215265,750.570099 42.7345527,750.570099 C39.3512008,750.570099 36.2610171,753.938912 36.6173476,757.426178 C35.7271173,756.953549 34.6569341,756.657416 33.5891344,756.657416 C29.9090391,756.657416 27,759.614011 27,763.277773 C27,766.529317 29.4323428,769.387596 32.6369336,769.800998 C32.8752817,769.860225 33.1112464,770 33.4079898,770 L42.0147413,770 L42.0147413,769.779677 L42.0147413,769.779677 Z M36.6125806,757.366952 L36.6125806,757.426178 L36.6125806,757.366952 L36.6125806,757.366952 Z M36.6125806,757.366952 L36.6125806,757.366952 C36.6125806,757.308909 36.6125806,757.308909 36.6125806,757.366952 L36.6125806,757.366952 Z" id="travelpro_logo"></path>
            </g>
        </g>
    </g>
</svg>
