<svg height="259.35999" viewBox="0 0 1600 259.35999" width="1600" xmlns="http://www.w3.org/2000/svg"><g fill="#396fc0" transform="matrix(.13333333 0 0 -.13333333 0 259.36)"><path d="m1319 279.801c27.13-.012 54.26 7.019 78.54 21.07l288.31 166.449c58.3 33.629 125.82 47.739 192.69 40.102 350.31-40.371 596.55-106.582 669.09-127.684 15.04-4.359 31.12.66 41.02 12.934 11.87 14.769 27.03 38.379 37.85 72.277 10.81 33.36 12.26 60.922 11.21 79.922-.79 16.348-12 30.34-27.7 34.949-113.69 33.5-615.99 169.481-1291.01 169.481s-1177.324-135.981-1291.0156-169.481c-15.6953-4.609-26.90627-18.601-27.695337-34.949-1.054688-19 .394531-46.562 11.210937-79.922 10.8164-33.898 25.9805-57.508 37.8516-72.277 9.8906-12.274 25.9804-17.293 41.0195-12.934 72.5389 21.102 318.7769 87.313 669.0819 127.684 66.871 7.637 134.399-6.473 192.695-40.102l288.312-166.449c24.28-14.051 51.41-21.082 78.54-21.07"/><path d="m837.457 1215.44c15.844-27.44 41.309-45.86 69.672-53.46s59.629-4.38 87.07 11.46c27.441 15.85 45.861 41.31 53.461 69.67 7.6 28.37 4.38 59.63-11.46 87.07l-259.427 449.35c-8.312 14.4-24.507 20.26-41.148 19.04-20.504-1.64-49.727-12.26-83.883-31.98-34.148-19.71-57.957-39.72-69.633-56.65-9.379-13.8-12.39-30.76-4.082-45.15z"/><path d="m599.688 893.68c27.437-15.852 58.703-19.078 87.07-11.469 28.363 7.598 53.828 26.019 69.672 53.461 15.843 27.441 19.062 58.707 11.465 87.068-7.602 28.37-26.024 53.83-53.465 69.68l-449.348 259.42c-14.391 8.32-31.348 5.3-45.148-4.08-16.93-11.67-36.938-35.48-56.653-69.63-19.722-34.16-30.336-63.38-31.98-83.88-1.223-16.64 4.644-32.84 19.035-41.15z"/><path d="m1433.75 1374.99c0-31.68-12.85-60.36-33.61-81.13-20.77-20.77-49.46-33.61-81.14-33.61-31.69 0-60.37 12.84-81.14 33.61-20.76 20.77-33.61 49.45-33.61 81.13v518.87c0 16.61 11.09 29.79 26.12 37.06 18.58 8.82 49.2 14.24 88.63 14.24 39.44 0 70.05-5.42 88.63-14.24 15.03-7.27 26.12-20.45 26.12-37.06z"/><path d="m1800.54 1215.44c-15.84-27.44-41.31-45.86-69.67-53.46-28.37-7.6-59.63-4.38-87.07 11.46-27.44 15.85-45.87 41.31-53.46 69.67-7.61 28.37-4.38 59.63 11.46 87.07l259.43 449.35c8.31 14.4 24.5 20.26 41.15 19.04 20.5-1.64 49.72-12.26 83.87-31.98 34.16-19.71 57.96-39.72 69.64-56.65 9.38-13.8 12.39-30.76 4.09-45.15z"/><path d="m2038.32 893.68c-27.45-15.852-58.71-19.078-87.07-11.469-28.37 7.598-53.84 26.019-69.68 53.461-15.84 27.441-19.07 58.707-11.46 87.068 7.6 28.37 26.02 53.83 53.46 69.68l449.35 259.42c14.39 8.32 31.35 5.3 45.15-4.08 16.93-11.67 36.93-35.48 56.65-69.63 19.72-34.16 30.33-63.38 31.98-83.88 1.22-16.64-4.65-32.84-19.04-41.15z"/><path d="m4906.46 1250.29h215.94c7.93 0 15.04-4.86 17.92-12.24l215.31-551.679 208.83 551.489c2.83 7.48 9.99 12.43 17.99 12.43h212.1c13.86 0 23.17-14.22 17.63-26.93l-528.19-1211.1881c-3.04-6.99221-9.94-11.511744-17.56-11.542994l-186.88-.628906c-13.82-.0507813-23.18 14.0703-17.76 26.7813l180.24 422.8597-353.07 773.429c-5.82 12.73 3.49 27.22 17.5 27.22"/><path d="m7628.5 822.52c0-147.782 91.51-261.54 237.08-261.54 145.56 0 240.46 98.309 240.46 250.579 0 152.269-91.59 268.301-246.37 268.301-146.35 0-231.17-114.262-231.17-257.34zm471.63 305.43v103.1c0 10.63 8.61 19.24 19.24 19.24h191.01c10.63 0 19.24-8.61 19.24-19.24v-821.269c0-10.633-8.61-19.242-19.24-19.242h-191.01c-10.63 0-19.24 8.609-19.24 19.242v108.16c-40.9-63.402-130.81-145.953-276.74-145.953-279.86 0-425.23 213.34-425.23 452.223 0 310.989 215.99 444.639 418.48 444.639 132.99 0 225.5-62.68 283.49-140.9"/><path d="m8502.96 409.781v821.269c0 10.63 8.61 19.24 19.24 19.24h191.01c10.63 0 19.24-8.61 19.24-19.24v-111.53c45.5 78.33 128.99 149.33 272.52 149.33 148 0 312.18-72.71 312.18-406.67v-452.399c0-10.633-8.61-19.242-19.24-19.242h-191.02c-10.62 0-19.23 8.609-19.23 19.242v449.02c0 80.609-19.82 218.529-162.84 218.529s-192.37-125.295-192.37-241.299v-426.25c0-10.633-8.61-19.242-19.24-19.242h-191.01c-10.63 0-19.24 8.609-19.24 19.242"/><path d="m9483.71 409.781v821.269c0 10.63 8.61 19.24 19.23 19.24h191.02c10.62 0 19.23-8.61 19.23-19.24l.01-111.53c45.49 78.33 128.98 149.33 272.52 149.33 147.98 0 312.18-72.71 312.18-406.67v-452.399c0-10.633-8.6-19.242-19.2-19.242h-191.1c-10.6 0-19.2 8.609-19.2 19.242v449.02c0 80.609-19.8 218.529-162.83 218.529-143.02 0-192.37-125.295-192.37-241.299l-.01-426.25c0-10.633-8.61-19.242-19.23-19.242h-191.02c-10.62 0-19.23 8.609-19.23 19.242"/><path d="m11491.9 1250.29h186c10.6 0 19.2-8.61 19.2-19.24v-169.75c37.5 168.8 181.9 226.23 288 202.24 8.8-1.97 14.9-9.84 14.9-18.79v-187.41c0-12.16-11.2-21.16-23.1-18.82-195.5 38.3-274.7-66.922-274.7-215.149 0-105.082 0-344.281 0-413.641 0-10.621-8.6-19.191-19.3-19.191h-191c-10.6 0-19.2 8.609-19.2 19.242v821.269c0 10.63 8.6 19.24 19.2 19.24"/><path d="m3639.08 1063.89c-58.86 20.38-90.37 31.29-138.59 47.99s-131.44 64.57-131.44 141.72 53.3 124.94 159.47 124.94c97.98 0 152.07-47.93 187.3-123.87 4.79-10.33 17.28-14.46 27.14-8.77l156.88 90.58c8.56 4.94 12.05 15.56 7.97 24.56-47.34 104.34-157.79 229.26-377.18 229.26-244.51 0-396.94-145.41-396.94-335.79s125.67-289.1 295.44-346.85c61.74-21.012 87.53-29.781 139.75-47.539 99.93-33.992 146.09-78.992 146.09-141.551 0-62.57-39.04-135.66-195.32-135.66-142.38 0-193.06 75.262-221.36 147.059-4.28 10.871-17.31 15.293-27.43 9.453l-164.25-94.832c-8.34-4.809-11.81-15.059-8.23-23.988 62.69-156.243 235.77-248.614 430.56-248.614 228.08 0 420.59 116.551 420.59 350.891 0 234.359-251.6 320.641-310.45 341.011"/><path d="m4899.12 614.82c-5.69 9.84-18.67 12.668-27.86 5.969-73.99-53.957-161.51-55.027-226.56 46.672-55.12 86.187-122.05 190.84-122.05 190.84l289.56 360.709c10.11 12.59 1.14 31.28-15 31.28h-226.59c-6.15 0-11.93-2.94-15.55-7.91l-250.68-344.189v693.129c0 10.62-8.61 19.23-19.23 19.23h-191.02c-10.62 0-19.24-8.61-19.24-19.23v-1181.539c0-10.633 8.62-19.23 19.24-19.23h191.02c10.62 0 19.23 8.597 19.23 19.23v384.059s128.39-202.219 176.09-277.371c65.42-103.059 158.87-144.481 258.14-144.481 94.65 0 155.51 25.453 228.39 95.891 6.37 6.16 7.78 15.871 3.35 23.543z"/><path d="m6271.16 887.48c-61.1 22.579-82.05 30.329-128.58 47.52-46.54 17.199-86.6 42.02-86.6 79.17 0 37.14 33.93 78.35 103.78 78.35 60.98 0 98.2-24.33 118.68-66.01 4.91-10 17.2-13.82 26.85-8.25l134.25 77.51c9.21 5.31 12.35 17.06 7.06 26.28-36.75 63.99-109.91 146.8-285.15 146.8-215.22 0-325.68-124.35-325.68-261.55 0-137.198 112.39-201.859 215.15-243.339 116.14-46.91 123.96-50.063 138.19-55.813 35.86-14.468 78.64-36.82 78.64-78.218 0-41.418-46.87-77.391-120.65-77.391-67.91 0-143.77 27.691-175.14 105.289-4.38 10.852-17.29 15.391-27.43 9.531l-135.42-78.187c-8.22-4.742-11.82-14.781-8.38-23.621 40.04-102.711 157.38-193.563 346.37-193.563 205.7 0 342.55 109.864 342.55 264.082 0 154.219-102.59 208.571-218.49 251.41"/><path d="m7044.72 1062.99c85.6 0 149.41-25.97 208.09-68.748 9.28-6.769 22.36-4.133 28.1 5.818l78.87 136.6c5.06 8.79 2.44 19.95-5.96 25.63-81.93 55.33-182.97 106.56-320.07 106.56-135.21 0-261.45-37.44-351.42-127.4-89.96-89.96-131.19-196.391-131.19-323.149 0-153.332 62.9-250.192 132.04-319.34 69.14-69.141 192.63-126.133 350.57-126.133 142.64 0 248.57 58.774 319.93 107.192 8.34 5.671 10.83 16.789 5.79 25.519l-78.34 135.691c-5.68 9.848-18.71 12.77-27.86 6.008-50.81-37.566-125.01-68.539-208.55-68.539-93.25 0-263.25 53.352-263.25 242.141 0 188.78 169.22 242.15 263.25 242.15"/><path d="m10887.8 1084.07c109.7 0 210.1-65.9 225.3-184.769h-459.8c29.8 128.899 124.9 184.769 234.5 184.769zm37.2-521.41c-77 0-149.3 17.86-202.1 60.328-52.8 42.461-77.2 85.633-77.2 137.102h683.4c10.8 0 19.4 8.941 19.2 19.742-4 203.039-69.7 298.648-133.5 362.458-65.9 65.84-178.3 126.56-325.3 126.56-146.9 0-261.6-54.08-338.3-130.78-76.7-76.69-134.1-173.625-134.1-321.449 0-147.832 59.5-244.769 132.4-317.66 72.9-72.883 191-126.949 361-126.949 161.6 0 296.2 57.066 394.5 168.636 8 9.102 5.6 23.321-4.9 29.383l-136.1 78.598c-7.2 4.141-16.3 3.301-22.4-2.277-68.8-62.821-154.9-83.692-216.6-83.692"/></g></svg>